<svg width="33" height="33" viewBox="0 0 33 33" fill="none" xmlns="http://www.w3.org/2000/svg">
<path d="M16.5 0C7.40143 0 0 7.40143 0 16.5C0 25.5986 7.40143 33 16.5 33C25.5986 33 33 25.5986 33 16.5C33 7.40143 25.5986 0 16.5 0ZM16.5 30.6429C8.701 30.6429 2.35714 24.299 2.35714 16.5C2.35714 8.701 8.701 2.35714 16.5 2.35714C24.299 2.35714 30.6429 8.701 30.6429 16.5C30.6429 24.299 24.299 30.6429 16.5 30.6429Z" fill="#06498B"/>
<path d="M16.5002 11.7866C18.3724 11.7866 20.0681 12.8976 20.8185 14.6163C21.0794 15.2133 21.773 15.4849 22.37 15.2241C22.9669 14.9632 23.2385 14.268 22.9777 13.6726C22.3592 12.2592 21.3142 11.1236 20.0343 10.3824L20.0359 8.25084C20.0359 7.60019 19.5079 7.07227 18.8573 7.07227C18.2066 7.07227 17.6787 7.60019 17.6787 8.25084V9.53222C17.2935 9.46623 16.9007 9.4294 16.5001 9.4294C16.0981 9.4294 15.7052 9.47083 15.3216 9.53529V8.25084C15.3216 7.60019 14.7936 7.07227 14.143 7.07227C13.4923 7.07227 12.9644 7.60019 12.9644 8.25084V10.387C10.8544 11.6116 9.42871 13.8905 9.42871 16.5006C9.42871 19.1108 10.8544 21.3898 12.9644 22.6143V24.7504C12.9644 25.4011 13.4923 25.929 14.143 25.929C14.7936 25.929 15.3216 25.4011 15.3216 24.7504V23.466C15.7052 23.5305 16.0981 23.5719 16.5001 23.5719C16.9007 23.5719 17.2935 23.5351 17.6787 23.4691V24.7505C17.6787 25.4011 18.2066 25.929 18.8573 25.929C19.5079 25.929 20.0359 25.4011 20.0359 24.7505V22.6189C21.3157 21.8777 22.3608 20.7421 22.9792 19.3287C23.2401 18.7318 22.9685 18.0381 22.3715 17.7772C21.7746 17.5164 21.0809 17.788 20.82 18.3849C20.0681 20.1037 18.3723 21.2147 16.5002 21.2147C13.9006 21.2147 11.7859 19.1001 11.7859 16.5005C11.7859 13.9008 13.9006 11.7866 16.5002 11.7866Z" fill="#06498B"/>
</svg>
