<svg width="34" height="24" viewBox="0 0 34 24" fill="none" xmlns="http://www.w3.org/2000/svg">
<path fill-rule="evenodd" clip-rule="evenodd" d="M16.554 0.0881236L0.738919 6.61942C-0.246306 7.02604 -0.246306 8.44468 0.738919 8.8513L16.554 15.3826C16.84 15.5001 17.16 15.5001 17.4459 15.3826L30.0372 10.1825V19.1809L29.2194 22.5031C29.0328 23.2636 29.5987 24 30.3706 24H32.0743C32.8462 24 33.4121 23.2636 33.2255 22.5031L32.4077 19.1809V9.20368L33.2611 8.85128C34.2463 8.44466 34.2463 7.02601 33.2611 6.61939L17.446 0.0881008C17.16 -0.0293669 16.8399 -0.0293441 16.554 0.0881236ZM15.6621 17.6148L6.33289 13.7625V18.9159C6.33289 19.3737 6.58624 19.7893 6.99514 19.9791C8.71367 20.7758 13.4294 22.7953 16.9998 22.7953C20.5703 22.7953 25.2861 20.7758 27.0046 19.9791C27.4134 19.7893 27.6668 19.3737 27.6668 18.9159V13.7625L18.3376 17.6148C17.4798 17.9687 16.5199 17.9687 15.6621 17.6148Z" fill="#06498B"/>
</svg>
