<svg width="28" height="22" viewBox="0 0 28 22" fill="none" xmlns="http://www.w3.org/2000/svg">
<path d="M27.351 2.80329C27.3196 2.14374 27.0056 1.547 26.5345 1.1073C26.0633 0.667593 25.4352 0.447742 24.7756 0.510557C24.1161 0.541964 23.5194 0.856037 23.1111 1.32715L10.5481 15.4604L4.80059 10.2468C4.32948 9.80712 3.70133 9.58727 3.04178 9.61868C2.38223 9.65009 1.78549 9.93275 1.37719 10.4039C0.93749 10.875 0.717639 11.5031 0.749046 12.1627C0.780453 12.8222 1.06312 13.419 1.53423 13.8273L9.10339 20.7055C9.5431 21.1138 10.1398 21.3336 10.7366 21.3336H10.8622H10.8936C11.5218 21.3022 12.1185 21.0195 12.5896 20.517L26.7857 4.53069C27.1626 4.05958 27.3825 3.43144 27.351 2.80329Z" fill="black"/>
</svg>
