<svg width="30" height="36" viewBox="0 0 30 36" fill="none" xmlns="http://www.w3.org/2000/svg">
<path d="M29.6798 6.40064C29.5783 6.31606 29.4595 6.25592 29.3322 6.22469C29.2048 6.19346 29.0723 6.19194 28.9443 6.22025C26.4404 6.77275 23.83 6.51173 21.4785 5.47372C19.1269 4.43571 17.1519 2.67265 15.8296 0.431226C15.7521 0.299651 15.6426 0.190795 15.5117 0.115234C15.3809 0.0396726 15.2331 -2.41837e-05 15.0828 1.5668e-07H14.9183C14.768 -9.09753e-05 14.6201 0.039574 14.4892 0.115138C14.3582 0.190702 14.2487 0.299594 14.1711 0.431226C12.849 2.67273 10.8739 4.43586 8.52237 5.47389C6.17081 6.51191 3.56041 6.77287 1.05648 6.22025C0.928435 6.19184 0.795768 6.19329 0.668349 6.2245C0.54093 6.2557 0.422039 6.31585 0.320519 6.40048C0.219 6.48511 0.137466 6.59203 0.0819846 6.7133C0.0265027 6.83456 -0.0014992 6.96705 6.18622e-05 7.1009C0.075845 14.2355 0.515766 19.5654 2.46301 24.0828C3.5062 26.5053 5.01034 28.6918 6.88799 30.5152C8.88411 32.4817 11.4084 34.2437 14.6054 35.9032C14.7278 35.9668 14.8632 36 15.0006 36C15.1379 36 15.2733 35.9668 15.3958 35.9032C18.5923 34.2437 21.1174 32.4817 23.1131 30.5152C24.9902 28.6915 26.4939 26.5051 27.537 24.0828C29.485 19.5646 29.9242 14.2355 29.9999 7.1009C30.0015 6.9671 29.9735 6.83466 29.9181 6.71342C29.8627 6.59219 29.7812 6.48528 29.6798 6.40064ZM20.9495 22.7613C20.3392 23.5616 19.5795 24.2303 18.7144 24.7286C17.8494 25.227 16.8962 25.5451 15.91 25.6645C15.6023 25.7027 15.2927 25.722 14.9828 25.7222C13.2744 25.7184 11.6176 25.1233 10.2828 24.034C8.94798 22.9448 8.01381 21.4256 7.63266 19.7243C7.25151 18.0231 7.44588 16.24 8.18407 14.6661C8.92225 13.0921 10.1607 11.8201 11.6974 11.0576C13.2341 10.295 14.9784 10.0869 16.6457 10.4671C18.3131 10.8474 19.8051 11.7936 20.8785 13.1513C21.9519 14.5091 22.5432 16.1984 22.5561 17.9436C22.569 19.6889 22.0027 21.3871 20.9495 22.7613ZM18.587 13.3239C17.5686 12.5044 16.3098 12.0592 15.0135 12.06C14.775 12.06 14.5367 12.0749 14.3 12.1045C12.9661 12.2709 11.7299 12.9046 10.8021 13.8977C9.87423 14.8907 9.31208 16.1817 9.21138 17.5506C9.11069 18.9196 9.47767 20.2818 10.2498 21.4054C11.022 22.5289 12.1515 23.3442 13.4461 23.7124C14.7407 24.0806 16.1201 23.979 17.3495 23.4247C18.5789 22.8705 19.5822 21.8979 20.1885 20.6728C20.7948 19.4477 20.9666 18.0457 20.6745 16.7057C20.3825 15.3657 19.6448 14.1705 18.587 13.3239ZM19.2884 16.5902L15.1787 20.7871C15.0977 20.8698 15.0016 20.9354 14.8958 20.9802C14.79 21.025 14.6767 21.048 14.5622 21.048C14.4476 21.048 14.3341 21.025 14.2283 20.9803C14.1224 20.9355 14.0263 20.8699 13.9453 20.7871L11.3399 18.1254C11.1765 17.958 11.0848 17.7312 11.0852 17.4948C11.0855 17.2583 11.1777 17.0318 11.3416 16.8648C11.5054 16.6979 11.7275 16.6043 11.9589 16.6046C12.1903 16.6049 12.4121 16.6992 12.5755 16.8666L14.5641 18.898L18.0546 15.329C18.2182 15.1619 18.44 15.068 18.6714 15.0679C18.9027 15.0679 19.1246 15.1617 19.2882 15.3288C19.4518 15.4959 19.5437 15.7225 19.5438 15.9589C19.5438 16.1952 19.4519 16.4219 19.2884 16.589V16.5902Z" fill="#06498B"/>
</svg>
