<svg width="32" height="33" viewBox="0 0 32 33" fill="none" xmlns="http://www.w3.org/2000/svg">
<path d="M10.2988 16.502L11.3426 16.3976C11.7253 16.3628 12.0733 16.5368 12.3168 16.8151L13.7086 18.7636C14.5785 17.7198 15.4135 16.6412 16.2486 15.5625L15.3091 14.4491C15.0656 14.1708 14.996 13.7532 15.1352 13.4053L15.5179 12.3963C16.1094 10.7957 15.831 9.02121 14.7872 7.66423L9.22014 0.496619C8.76781 -0.0948837 7.93275 -0.164472 7.34125 0.322647C6.81933 0.774973 6.78454 1.61003 7.20207 2.13195L11.7949 8.04697C12.1081 8.4645 12.0037 9.056 11.5514 9.33436C11.1686 9.57792 10.6467 9.43874 10.3336 9.0908L5.77551 3.17578C5.32318 2.58427 4.48812 2.51469 3.89662 3.0018C3.3747 3.45413 3.33991 4.28919 3.75744 4.81111L8.35028 10.7261C8.66343 11.1437 8.55905 11.7352 8.10672 12.0135C7.72398 12.2571 7.20207 12.1179 6.88892 11.77L2.36567 5.92452C1.94814 5.36781 1.14787 5.19384 0.556368 5.61137C-0.0699284 6.0289 -0.174311 6.89876 0.278014 7.45547L5.87989 14.6231C6.92372 15.9801 8.59384 16.6759 10.2988 16.502Z" fill="#06498B"/>
<path d="M20.9812 21.1289C20.1809 22.2423 19.2415 23.6341 18.2324 25.0607L23.4168 32.2979C23.9735 33.0981 25.0869 33.2373 25.8524 32.6458L27.4181 31.428C28.1836 30.8365 28.288 29.7231 27.6617 28.9924L20.9812 21.1289Z" fill="#06498B"/>
<path d="M30.9313 1.67975C30.6181 0.87948 29.5395 0.705509 29.0176 1.40139L18.6837 14.8668C15.4826 19.0421 12.5947 22.5215 9.11529 26.4533L7.13202 28.8889C6.50572 29.6543 6.6449 30.8025 7.44516 31.4288L9.01091 32.6118C9.84597 33.2381 10.9942 33.0294 11.5857 32.1943C13.8125 28.8541 19.0664 21.1297 21.1193 18.381L23.5549 19.9815C24.5291 20.5382 25.7469 20.2251 26.3384 19.2856C27.5214 17.3372 29.6787 13.3358 31.2444 10.2739C32.7058 7.45559 31.7316 3.8022 30.9313 1.67975Z" fill="#06498B"/>
</svg>
